#!OML:ASF G:\JayActor3\Patient Classification 1\Patient 1\Session 6\male.ASF
:FULLY-SPECIFIED
:DEGREES
1791
root 0.48235 15.9531 -0.23858 207.227 16.6706 -176.064
lowerback 39.7997 -3.77338 -1.22093
upperback 8.56697 -2.93521 -0.994347
thorax -9.71953 -0.381029 0.621325
lowerneck 7.84871 0.785868 2.68748
upperneck -18.3499 1.3031 -3.43054
head -6.84204 0.964851 -1.68714
rclavicle 5.24792e-014 -2.38542e-015
rhumerus -38.7603 24.8815 -88.9784
rradius 63.749
rwrist -15.854
rhand -32.7118 -7.90673
rfingers 7.12502
rthumb -5.93596 -37.8036
lclavicle 5.24792e-014 -2.38542e-015
lhumerus -42.9896 -14.4391 87.1393
lradius 66.6368
lwrist 43.2036
lhand -40.0734 8.20148
lfingers 7.12502
lthumb -13.0385 37.774
rfemur -63.1728 8.18341 19.2894
rtibia 48.7214
rfoot -10.6488 -4.76433
rtoes 0.441488
lfemur -59.4146 11.3175 -23.7347
ltibia 75.2898
lfoot -4.064 -6.21665
ltoes -7.21649
1792
root 0.517476 15.9491 -0.381527 207.177 16.5918 -175.871
lowerback 39.8438 -3.76062 -1.27817
upperback 8.68443 -2.90244 -0.968242
thorax -9.59708 -0.355644 0.663101
lowerneck 8.25289 0.763444 2.62627
upperneck -18.6098 1.28204 -3.3437
head -6.99952 0.953736 -1.65531
rclavicle -1.59028e-014 -5.56597e-015
rhumerus -38.4688 26.0583 -89.2207
rradius 63.5796
rwrist -16.2206
rhand -32.3835 -7.99057
rfingers 7.12502
rthumb -5.619 -37.8961
lclavicle -1.59028e-014 -5.56597e-015
lhumerus -43.2884 -15.4529 87.6613
lradius 66.4229
lwrist 44.7406
lhand -39.6181 8.55496
lfingers 7.12502
lthumb -12.5996 38.155
rfemur -62.6325 8.42792 19.5342
rtibia 49.145
rfoot -11.5218 -5.22183
rtoes 0.381922
lfemur -60.8852 11.6979 -23.5862
ltibia 77.1938
lfoot -3.56325 -5.35408
ltoes -6.63047
1793
root 0.555782 15.9433 -0.522745 207.099 16.5213 -175.786
lowerback 39.8811 -3.7158 -1.46646
upperback 8.81792 -2.87897 -0.962952
thorax -9.44816 -0.33143 0.753742
lowerneck 8.75201 0.730709 2.56887
upperneck -18.9988 1.25397 -3.24585
head -7.21682 0.940795 -1.62297
rclavicle 1.90833e-014 -2.06736e-014
rhumerus -38.2949 27.2445 -89.3983
rradius 63.7089
rwrist -16.5437
rhand -32.0188 -8.09247
rfingers 7.12502
rthumb -5.26688 -38.007
lclavicle 1.90833e-014 -2.06736e-014
lhumerus -43.6329 -16.4089 88.0121
lradius 66.3426
lwrist 46.3012
lhand -39.1286 8.77112
lfingers 7.12502
lthumb -12.1277 38.3996
rfemur -62.1633 8.68494 19.6293
rtibia 49.6742
rfoot -12.4975 -5.64262
rtoes 0.489894
lfemur -62.3461 12.0558 -23.6265
ltibia 78.7153
lfoot -3.53967 -4.31463
ltoes -6.52143
1794
root 0.596709 15.9365 -0.663292 206.978 16.4548 -175.806
lowerback 39.9344 -3.65103 -1.75997
upperback 8.96697 -2.86829 -0.985477
thorax -9.28207 -0.309571 0.873997
lowerneck 9.31396 0.688615 2.50158
upperneck -19.4888 1.21856 -3.13187
head -7.48012 0.925805 -1.58521
rclavicle 4.77083e-015 7.95139e-015
rhumerus -38.242 28.4095 -89.5068
rradius 64.1434
rwrist -16.8564
rhand -31.626 -8.18458
rfingers 7.12502
rthumb -4.88764 -38.1082
lclavicle 4.77083e-015 7.95139e-015
lhumerus -44.0328 -17.3118 88.1927
lradius 66.4106
lwrist 47.6475
lhand -38.5933 8.83984
lfingers 7.12502
lthumb -11.6114 38.4981
rfemur -61.7554 8.91736 19.6092
rtibia 50.338
rfoot -13.5379 -6.02026
rtoes 0.816398
lfemur -63.7588 12.3828 -23.8578
ltibia 79.7677
lfoot -3.89291 -3.25379
ltoes -6.70862
1795
root 0.639758 15.929 -0.804012 206.822 16.3829 -175.904
lowerback 40.0128 -3.575 -2.12298
upperback 9.12426 -2.86763 -1.03021
thorax -9.11134 -0.289731 1.01038
lowerneck 9.89952 0.643508 2.41358
upperneck -20.0293 1.18114 -3.0016
head -7.76662 0.91094 -1.53918
rclavicle -4.45278e-014 3.73715e-014
rhumerus -38.3085 29.5519 -89.5365
rradius 64.8656
rwrist -17.1515
rhand -31.2511 -8.25028
rfingers 7.12502
rthumb -4.5256 -38.1819
lclavicle -4.45278e-014 3.73715e-014
lhumerus -44.5135 -18.1751 88.2318
lradius 66.6417
lwrist 48.5423
lhand -38.0158 8.81107
lfingers 7.12502
lthumb -11.0545 38.5
rfemur -61.3596 9.11571 19.5199
rtibia 51.0467
rfoot -14.5767 -6.32367
rtoes 1.3165
lfemur -65.101 12.6912 -24.2608
ltibia 80.2487
lfoot -4.51509 -2.34243
ltoes -7.19395
